<svg width="1260" height="1264" viewBox="0 0 1260 1264" fill="none" xmlns="http://www.w3.org/2000/svg">
<path d="M2.72646e-06 -50L43 -25V25L2.72646e-06 50L-43 25V-25L2.72646e-06 -50Z" fill="#202020"/>
<path d="M2.72646e-06 -50L43 -25V25L2.72646e-06 50L-43 25V-25L2.72646e-06 -50Z" fill="#202020"/>
<path d="M45 29L88 54V104L45 129L2 104V54L45 29Z" fill="#202020"/>
<path d="M45 29L88 54V104L45 129L2 104V54L45 29Z" fill="#202020"/>
<path d="M135 29L178 54V104L135 129L92 104V54L135 29Z" fill="#202020"/>
<path d="M135 29L178 54V104L135 129L92 104V54L135 29Z" fill="#202020"/>
<path d="M180 -50L223 -25V25L180 50L137 25V-25L180 -50Z" fill="#202020"/>
<path d="M180 -50L223 -25V25L180 50L137 25V-25L180 -50Z" fill="#202020"/>
<path d="M225 29L268 54V104L225 129L182 104V54L225 29Z" fill="#202020"/>
<path d="M225 29L268 54V104L225 129L182 104V54L225 29Z" fill="#202020"/>
<path d="M990 -50L1033 -25V25L990 50L947 25V-25L990 -50Z" fill="#202020"/>
<path d="M990 -50L1033 -25V25L990 50L947 25V-25L990 -50Z" fill="#202020"/>
<path d="M270 -50L313 -25V25L270 50L227 25V-25L270 -50Z" fill="#202020"/>
<path d="M270 -50L313 -25V25L270 50L227 25V-25L270 -50Z" fill="#202020"/>
<path d="M315 29L358 54V104L315 129L272 104V54L315 29Z" fill="#202020"/>
<path d="M315 29L358 54V104L315 129L272 104V54L315 29Z" fill="#202020"/>
<path d="M360 -50L403 -25V25L360 50L317 25V-25L360 -50Z" fill="#202020"/>
<path d="M360 -50L403 -25V25L360 50L317 25V-25L360 -50Z" fill="#202020"/>
<path d="M405 29L448 54V104L405 129L362 104V54L405 29Z" fill="#202020"/>
<path d="M405 29L448 54V104L405 129L362 104V54L405 29Z" fill="#202020"/>
<path d="M450 -50L493 -25V25L450 50L407 25V-25L450 -50Z" fill="#202020"/>
<path d="M450 -50L493 -25V25L450 50L407 25V-25L450 -50Z" fill="#202020"/>
<path d="M495 29L538 54V104L495 129L452 104V54L495 29Z" fill="#202020"/>
<path d="M495 29L538 54V104L495 129L452 104V54L495 29Z" fill="#202020"/>
<path d="M540 -50L583 -25V25L540 50L497 25V-25L540 -50Z" fill="#202020"/>
<path d="M540 -50L583 -25V25L540 50L497 25V-25L540 -50Z" fill="#202020"/>
<path d="M585 29L628 54V104L585 129L542 104V54L585 29Z" fill="#202020"/>
<path d="M585 29L628 54V104L585 129L542 104V54L585 29Z" fill="#202020"/>
<path d="M630 -50L673 -25V25L630 50L587 25V-25L630 -50Z" fill="#202020"/>
<path d="M630 -50L673 -25V25L630 50L587 25V-25L630 -50Z" fill="#202020"/>
<path d="M675 29L718 54V104L675 129L632 104V54L675 29Z" fill="#202020"/>
<path d="M675 29L718 54V104L675 129L632 104V54L675 29Z" fill="#202020"/>
<path d="M720 -50L763 -25V25L720 50L677 25V-25L720 -50Z" fill="#202020"/>
<path d="M720 -50L763 -25V25L720 50L677 25V-25L720 -50Z" fill="#202020"/>
<path d="M765 29L808 54V104L765 129L722 104V54L765 29Z" fill="#202020"/>
<path d="M765 29L808 54V104L765 129L722 104V54L765 29Z" fill="#202020"/>
<path d="M810 -50L853 -25V25L810 50L767 25V-25L810 -50Z" fill="#202020"/>
<path d="M810 -50L853 -25V25L810 50L767 25V-25L810 -50Z" fill="#202020"/>
<path d="M855 29L898 54V104L855 129L812 104V54L855 29Z" fill="#202020"/>
<path d="M855 29L898 54V104L855 129L812 104V54L855 29Z" fill="#202020"/>
<path d="M900 -50L943 -25V25L900 50L857 25V-25L900 -50Z" fill="#202020"/>
<path d="M900 -50L943 -25V25L900 50L857 25V-25L900 -50Z" fill="#202020"/>
<path d="M945 29L988 54V104L945 129L902 104V54L945 29Z" fill="#202020"/>
<path d="M945 29L988 54V104L945 129L902 104V54L945 29Z" fill="#202020"/>
<path d="M1035 29L1078 54V104L1035 129L992 104V54L1035 29Z" fill="#202020"/>
<path d="M1035 29L1078 54V104L1035 129L992 104V54L1035 29Z" fill="#202020"/>
<path d="M1080 -50L1123 -25V25L1080 50L1037 25V-25L1080 -50Z" fill="#202020"/>
<path d="M1080 -50L1123 -25V25L1080 50L1037 25V-25L1080 -50Z" fill="#202020"/>
<path d="M1125 29L1168 54V104L1125 129L1082 104V54L1125 29Z" fill="#202020"/>
<path d="M1125 29L1168 54V104L1125 129L1082 104V54L1125 29Z" fill="#202020"/>
<path d="M1170 -50L1213 -25V25L1170 50L1127 25V-25L1170 -50Z" fill="#202020"/>
<path d="M1170 -50L1213 -25V25L1170 50L1127 25V-25L1170 -50Z" fill="#202020"/>
<path d="M1215 29L1258 54V104L1215 129L1172 104V54L1215 29Z" fill="#202020"/>
<path d="M1215 29L1258 54V104L1215 129L1172 104V54L1215 29Z" fill="#202020"/>
<path d="M1260 -50L1303 -25V25L1260 50L1217 25V-25L1260 -50Z" fill="#202020"/>
<path d="M1260 -50L1303 -25V25L1260 50L1217 25V-25L1260 -50Z" fill="#202020"/>
<path d="M90 -50L133 -25V25L90 50L47 25V-25L90 -50Z" fill="#202020"/>
<path d="M90 -50L133 -25V25L90 50L47 25V-25L90 -50Z" fill="#202020"/>
<path d="M2.72646e-06 108L43 133V183L2.72646e-06 208L-43 183V133L2.72646e-06 108Z" fill="#202020"/>
<path d="M2.72646e-06 108L43 133V183L2.72646e-06 208L-43 183V133L2.72646e-06 108Z" fill="#202020"/>
<path d="M45 187L88 212V262L45 287L2 262V212L45 187Z" fill="#202020"/>
<path d="M45 187L88 212V262L45 287L2 262V212L45 187Z" fill="#202020"/>
<path d="M135 187L178 212V262L135 287L92 262V212L135 187Z" fill="#202020"/>
<path d="M135 187L178 212V262L135 287L92 262V212L135 187Z" fill="#202020"/>
<path d="M180 108L223 133V183L180 208L137 183V133L180 108Z" fill="#202020"/>
<path d="M180 108L223 133V183L180 208L137 183V133L180 108Z" fill="#202020"/>
<path d="M225 187L268 212V262L225 287L182 262V212L225 187Z" fill="#202020"/>
<path d="M225 187L268 212V262L225 287L182 262V212L225 187Z" fill="#202020"/>
<path d="M990 108L1033 133V183L990 208L947 183V133L990 108Z" fill="#202020"/>
<path d="M990 108L1033 133V183L990 208L947 183V133L990 108Z" fill="#202020"/>
<path d="M270 108L313 133V183L270 208L227 183V133L270 108Z" fill="#202020"/>
<path d="M270 108L313 133V183L270 208L227 183V133L270 108Z" fill="#202020"/>
<path d="M315 187L358 212V262L315 287L272 262V212L315 187Z" fill="#202020"/>
<path d="M315 187L358 212V262L315 287L272 262V212L315 187Z" fill="#202020"/>
<path d="M360 108L403 133V183L360 208L317 183V133L360 108Z" fill="#202020"/>
<path d="M360 108L403 133V183L360 208L317 183V133L360 108Z" fill="#202020"/>
<path d="M405 187L448 212V262L405 287L362 262V212L405 187Z" fill="#202020"/>
<path d="M405 187L448 212V262L405 287L362 262V212L405 187Z" fill="#202020"/>
<path d="M450 108L493 133V183L450 208L407 183V133L450 108Z" fill="#202020"/>
<path d="M450 108L493 133V183L450 208L407 183V133L450 108Z" fill="#202020"/>
<path d="M495 187L538 212V262L495 287L452 262V212L495 187Z" fill="#202020"/>
<path d="M495 187L538 212V262L495 287L452 262V212L495 187Z" fill="#202020"/>
<path d="M540 108L583 133V183L540 208L497 183V133L540 108Z" fill="#202020"/>
<path d="M540 108L583 133V183L540 208L497 183V133L540 108Z" fill="#202020"/>
<path d="M585 187L628 212V262L585 287L542 262V212L585 187Z" fill="#202020"/>
<path d="M585 187L628 212V262L585 287L542 262V212L585 187Z" fill="#202020"/>
<path d="M630 108L673 133V183L630 208L587 183V133L630 108Z" fill="#202020"/>
<path d="M630 108L673 133V183L630 208L587 183V133L630 108Z" fill="#202020"/>
<path d="M675 187L718 212V262L675 287L632 262V212L675 187Z" fill="#202020"/>
<path d="M675 187L718 212V262L675 287L632 262V212L675 187Z" fill="#202020"/>
<path d="M720 108L763 133V183L720 208L677 183V133L720 108Z" fill="#202020"/>
<path d="M720 108L763 133V183L720 208L677 183V133L720 108Z" fill="#202020"/>
<path d="M765 187L808 212V262L765 287L722 262V212L765 187Z" fill="#202020"/>
<path d="M765 187L808 212V262L765 287L722 262V212L765 187Z" fill="#202020"/>
<path d="M810 108L853 133V183L810 208L767 183V133L810 108Z" fill="#202020"/>
<path d="M810 108L853 133V183L810 208L767 183V133L810 108Z" fill="#202020"/>
<path d="M855 187L898 212V262L855 287L812 262V212L855 187Z" fill="#202020"/>
<path d="M855 187L898 212V262L855 287L812 262V212L855 187Z" fill="#202020"/>
<path d="M900 108L943 133V183L900 208L857 183V133L900 108Z" fill="#202020"/>
<path d="M900 108L943 133V183L900 208L857 183V133L900 108Z" fill="#202020"/>
<path d="M945 187L988 212V262L945 287L902 262V212L945 187Z" fill="#202020"/>
<path d="M945 187L988 212V262L945 287L902 262V212L945 187Z" fill="#202020"/>
<path d="M1035 187L1078 212V262L1035 287L992 262V212L1035 187Z" fill="#202020"/>
<path d="M1035 187L1078 212V262L1035 287L992 262V212L1035 187Z" fill="#202020"/>
<path d="M1080 108L1123 133V183L1080 208L1037 183V133L1080 108Z" fill="#202020"/>
<path d="M1080 108L1123 133V183L1080 208L1037 183V133L1080 108Z" fill="#202020"/>
<path d="M1125 187L1168 212V262L1125 287L1082 262V212L1125 187Z" fill="#202020"/>
<path d="M1125 187L1168 212V262L1125 287L1082 262V212L1125 187Z" fill="#202020"/>
<path d="M1170 108L1213 133V183L1170 208L1127 183V133L1170 108Z" fill="#202020"/>
<path d="M1170 108L1213 133V183L1170 208L1127 183V133L1170 108Z" fill="#202020"/>
<path d="M1215 187L1258 212V262L1215 287L1172 262V212L1215 187Z" fill="#202020"/>
<path d="M1215 187L1258 212V262L1215 287L1172 262V212L1215 187Z" fill="#202020"/>
<path d="M1260 108L1303 133V183L1260 208L1217 183V133L1260 108Z" fill="#202020"/>
<path d="M1260 108L1303 133V183L1260 208L1217 183V133L1260 108Z" fill="#202020"/>
<path d="M90 108L133 133V183L90 208L47 183V133L90 108Z" fill="#202020"/>
<path d="M90 108L133 133V183L90 208L47 183V133L90 108Z" fill="#202020"/>
<path d="M2.72646e-06 266L43 291V341L2.72646e-06 366L-43 341V291L2.72646e-06 266Z" fill="#202020"/>
<path d="M2.72646e-06 266L43 291V341L2.72646e-06 366L-43 341V291L2.72646e-06 266Z" fill="#202020"/>
<path d="M45 345L88 370V420L45 445L2 420V370L45 345Z" fill="#202020"/>
<path d="M45 345L88 370V420L45 445L2 420V370L45 345Z" fill="#202020"/>
<path d="M135 345L178 370V420L135 445L92 420V370L135 345Z" fill="#202020"/>
<path d="M135 345L178 370V420L135 445L92 420V370L135 345Z" fill="#202020"/>
<path d="M180 266L223 291V341L180 366L137 341V291L180 266Z" fill="#202020"/>
<path d="M180 266L223 291V341L180 366L137 341V291L180 266Z" fill="#202020"/>
<path d="M225 345L268 370V420L225 445L182 420V370L225 345Z" fill="#202020"/>
<path d="M225 345L268 370V420L225 445L182 420V370L225 345Z" fill="#202020"/>
<path d="M990 266L1033 291V341L990 366L947 341V291L990 266Z" fill="#202020"/>
<path d="M990 266L1033 291V341L990 366L947 341V291L990 266Z" fill="#202020"/>
<path d="M270 266L313 291V341L270 366L227 341V291L270 266Z" fill="#202020"/>
<path d="M270 266L313 291V341L270 366L227 341V291L270 266Z" fill="#202020"/>
<path d="M315 345L358 370V420L315 445L272 420V370L315 345Z" fill="#202020"/>
<path d="M315 345L358 370V420L315 445L272 420V370L315 345Z" fill="#202020"/>
<path d="M360 266L403 291V341L360 366L317 341V291L360 266Z" fill="#202020"/>
<path d="M360 266L403 291V341L360 366L317 341V291L360 266Z" fill="#202020"/>
<path d="M405 345L448 370V420L405 445L362 420V370L405 345Z" fill="#202020"/>
<path d="M405 345L448 370V420L405 445L362 420V370L405 345Z" fill="#202020"/>
<path d="M450 266L493 291V341L450 366L407 341V291L450 266Z" fill="#202020"/>
<path d="M450 266L493 291V341L450 366L407 341V291L450 266Z" fill="#202020"/>
<path d="M495 345L538 370V420L495 445L452 420V370L495 345Z" fill="#202020"/>
<path d="M495 345L538 370V420L495 445L452 420V370L495 345Z" fill="#202020"/>
<path d="M540 266L583 291V341L540 366L497 341V291L540 266Z" fill="#202020"/>
<path d="M540 266L583 291V341L540 366L497 341V291L540 266Z" fill="#202020"/>
<path d="M585 345L628 370V420L585 445L542 420V370L585 345Z" fill="#202020"/>
<path d="M585 345L628 370V420L585 445L542 420V370L585 345Z" fill="#202020"/>
<path d="M630 266L673 291V341L630 366L587 341V291L630 266Z" fill="#202020"/>
<path d="M630 266L673 291V341L630 366L587 341V291L630 266Z" fill="#202020"/>
<path d="M675 345L718 370V420L675 445L632 420V370L675 345Z" fill="#202020"/>
<path d="M675 345L718 370V420L675 445L632 420V370L675 345Z" fill="#202020"/>
<path d="M720 266L763 291V341L720 366L677 341V291L720 266Z" fill="#202020"/>
<path d="M720 266L763 291V341L720 366L677 341V291L720 266Z" fill="#202020"/>
<path d="M765 345L808 370V420L765 445L722 420V370L765 345Z" fill="#202020"/>
<path d="M765 345L808 370V420L765 445L722 420V370L765 345Z" fill="#202020"/>
<path d="M810 266L853 291V341L810 366L767 341V291L810 266Z" fill="#202020"/>
<path d="M810 266L853 291V341L810 366L767 341V291L810 266Z" fill="#202020"/>
<path d="M855 345L898 370V420L855 445L812 420V370L855 345Z" fill="#202020"/>
<path d="M855 345L898 370V420L855 445L812 420V370L855 345Z" fill="#202020"/>
<path d="M900 266L943 291V341L900 366L857 341V291L900 266Z" fill="#202020"/>
<path d="M900 266L943 291V341L900 366L857 341V291L900 266Z" fill="#202020"/>
<path d="M945 345L988 370V420L945 445L902 420V370L945 345Z" fill="#202020"/>
<path d="M945 345L988 370V420L945 445L902 420V370L945 345Z" fill="#202020"/>
<path d="M1035 345L1078 370V420L1035 445L992 420V370L1035 345Z" fill="#202020"/>
<path d="M1035 345L1078 370V420L1035 445L992 420V370L1035 345Z" fill="#202020"/>
<path d="M1080 266L1123 291V341L1080 366L1037 341V291L1080 266Z" fill="#202020"/>
<path d="M1080 266L1123 291V341L1080 366L1037 341V291L1080 266Z" fill="#202020"/>
<path d="M1125 345L1168 370V420L1125 445L1082 420V370L1125 345Z" fill="#202020"/>
<path d="M1125 345L1168 370V420L1125 445L1082 420V370L1125 345Z" fill="#202020"/>
<path d="M1170 266L1213 291V341L1170 366L1127 341V291L1170 266Z" fill="#202020"/>
<path d="M1170 266L1213 291V341L1170 366L1127 341V291L1170 266Z" fill="#202020"/>
<path d="M1215 345L1258 370V420L1215 445L1172 420V370L1215 345Z" fill="#202020"/>
<path d="M1215 345L1258 370V420L1215 445L1172 420V370L1215 345Z" fill="#202020"/>
<path d="M1260 266L1303 291V341L1260 366L1217 341V291L1260 266Z" fill="#202020"/>
<path d="M1260 266L1303 291V341L1260 366L1217 341V291L1260 266Z" fill="#202020"/>
<path d="M90 266L133 291V341L90 366L47 341V291L90 266Z" fill="#202020"/>
<path d="M90 266L133 291V341L90 366L47 341V291L90 266Z" fill="#202020"/>
<path d="M2.72646e-06 424L43 449V499L2.72646e-06 524L-43 499V449L2.72646e-06 424Z" fill="#202020"/>
<path d="M2.72646e-06 424L43 449V499L2.72646e-06 524L-43 499V449L2.72646e-06 424Z" fill="#202020"/>
<path d="M45 503L88 528V578L45 603L2 578V528L45 503Z" fill="#202020"/>
<path d="M45 503L88 528V578L45 603L2 578V528L45 503Z" fill="#202020"/>
<path d="M135 503L178 528V578L135 603L92 578V528L135 503Z" fill="#202020"/>
<path d="M135 503L178 528V578L135 603L92 578V528L135 503Z" fill="#202020"/>
<path d="M180 424L223 449V499L180 524L137 499V449L180 424Z" fill="#202020"/>
<path d="M180 424L223 449V499L180 524L137 499V449L180 424Z" fill="#202020"/>
<path d="M225 503L268 528V578L225 603L182 578V528L225 503Z" fill="#202020"/>
<path d="M225 503L268 528V578L225 603L182 578V528L225 503Z" fill="#202020"/>
<path d="M990 424L1033 449V499L990 524L947 499V449L990 424Z" fill="#202020"/>
<path d="M990 424L1033 449V499L990 524L947 499V449L990 424Z" fill="#202020"/>
<path d="M270 424L313 449V499L270 524L227 499V449L270 424Z" fill="#202020"/>
<path d="M270 424L313 449V499L270 524L227 499V449L270 424Z" fill="#202020"/>
<path d="M315 503L358 528V578L315 603L272 578V528L315 503Z" fill="#202020"/>
<path d="M315 503L358 528V578L315 603L272 578V528L315 503Z" fill="#202020"/>
<path d="M360 424L403 449V499L360 524L317 499V449L360 424Z" fill="#202020"/>
<path d="M360 424L403 449V499L360 524L317 499V449L360 424Z" fill="#202020"/>
<path d="M405 503L448 528V578L405 603L362 578V528L405 503Z" fill="#202020"/>
<path d="M405 503L448 528V578L405 603L362 578V528L405 503Z" fill="#202020"/>
<path d="M450 424L493 449V499L450 524L407 499V449L450 424Z" fill="#202020"/>
<path d="M450 424L493 449V499L450 524L407 499V449L450 424Z" fill="#202020"/>
<path d="M495 503L538 528V578L495 603L452 578V528L495 503Z" fill="#202020"/>
<path d="M495 503L538 528V578L495 603L452 578V528L495 503Z" fill="#202020"/>
<path d="M540 424L583 449V499L540 524L497 499V449L540 424Z" fill="#202020"/>
<path d="M540 424L583 449V499L540 524L497 499V449L540 424Z" fill="#202020"/>
<path d="M585 503L628 528V578L585 603L542 578V528L585 503Z" fill="#202020"/>
<path d="M585 503L628 528V578L585 603L542 578V528L585 503Z" fill="#202020"/>
<path d="M630 424L673 449V499L630 524L587 499V449L630 424Z" fill="#202020"/>
<path d="M630 424L673 449V499L630 524L587 499V449L630 424Z" fill="#202020"/>
<path d="M675 503L718 528V578L675 603L632 578V528L675 503Z" fill="#202020"/>
<path d="M675 503L718 528V578L675 603L632 578V528L675 503Z" fill="#202020"/>
<path d="M720 424L763 449V499L720 524L677 499V449L720 424Z" fill="#202020"/>
<path d="M720 424L763 449V499L720 524L677 499V449L720 424Z" fill="#202020"/>
<path d="M765 503L808 528V578L765 603L722 578V528L765 503Z" fill="#202020"/>
<path d="M765 503L808 528V578L765 603L722 578V528L765 503Z" fill="#202020"/>
<path d="M810 424L853 449V499L810 524L767 499V449L810 424Z" fill="#202020"/>
<path d="M810 424L853 449V499L810 524L767 499V449L810 424Z" fill="#202020"/>
<path d="M855 503L898 528V578L855 603L812 578V528L855 503Z" fill="#202020"/>
<path d="M855 503L898 528V578L855 603L812 578V528L855 503Z" fill="#202020"/>
<path d="M900 424L943 449V499L900 524L857 499V449L900 424Z" fill="#202020"/>
<path d="M900 424L943 449V499L900 524L857 499V449L900 424Z" fill="#202020"/>
<path d="M945 503L988 528V578L945 603L902 578V528L945 503Z" fill="#202020"/>
<path d="M945 503L988 528V578L945 603L902 578V528L945 503Z" fill="#202020"/>
<path d="M1035 503L1078 528V578L1035 603L992 578V528L1035 503Z" fill="#202020"/>
<path d="M1035 503L1078 528V578L1035 603L992 578V528L1035 503Z" fill="#202020"/>
<path d="M1080 424L1123 449V499L1080 524L1037 499V449L1080 424Z" fill="#202020"/>
<path d="M1080 424L1123 449V499L1080 524L1037 499V449L1080 424Z" fill="#202020"/>
<path d="M1125 503L1168 528V578L1125 603L1082 578V528L1125 503Z" fill="#202020"/>
<path d="M1125 503L1168 528V578L1125 603L1082 578V528L1125 503Z" fill="#202020"/>
<path d="M1170 424L1213 449V499L1170 524L1127 499V449L1170 424Z" fill="#202020"/>
<path d="M1170 424L1213 449V499L1170 524L1127 499V449L1170 424Z" fill="#202020"/>
<path d="M1215 503L1258 528V578L1215 603L1172 578V528L1215 503Z" fill="#202020"/>
<path d="M1215 503L1258 528V578L1215 603L1172 578V528L1215 503Z" fill="#202020"/>
<path d="M1260 424L1303 449V499L1260 524L1217 499V449L1260 424Z" fill="#202020"/>
<path d="M1260 424L1303 449V499L1260 524L1217 499V449L1260 424Z" fill="#202020"/>
<path d="M90 424L133 449V499L90 524L47 499V449L90 424Z" fill="#202020"/>
<path d="M90 424L133 449V499L90 524L47 499V449L90 424Z" fill="#202020"/>
<path d="M2.72646e-06 582L43 607V657L2.72646e-06 682L-43 657V607L2.72646e-06 582Z" fill="#202020"/>
<path d="M2.72646e-06 582L43 607V657L2.72646e-06 682L-43 657V607L2.72646e-06 582Z" fill="#202020"/>
<path d="M45 661L88 686V736L45 761L2 736V686L45 661Z" fill="#202020"/>
<path d="M45 661L88 686V736L45 761L2 736V686L45 661Z" fill="#202020"/>
<path d="M135 661L178 686V736L135 761L92 736V686L135 661Z" fill="#202020"/>
<path d="M135 661L178 686V736L135 761L92 736V686L135 661Z" fill="#202020"/>
<path d="M180 582L223 607V657L180 682L137 657V607L180 582Z" fill="#202020"/>
<path d="M180 582L223 607V657L180 682L137 657V607L180 582Z" fill="#202020"/>
<path d="M225 661L268 686V736L225 761L182 736V686L225 661Z" fill="#202020"/>
<path d="M225 661L268 686V736L225 761L182 736V686L225 661Z" fill="#202020"/>
<path d="M990 582L1033 607V657L990 682L947 657V607L990 582Z" fill="#202020"/>
<path d="M990 582L1033 607V657L990 682L947 657V607L990 582Z" fill="#202020"/>
<path d="M270 582L313 607V657L270 682L227 657V607L270 582Z" fill="#202020"/>
<path d="M270 582L313 607V657L270 682L227 657V607L270 582Z" fill="#202020"/>
<path d="M315 661L358 686V736L315 761L272 736V686L315 661Z" fill="#202020"/>
<path d="M315 661L358 686V736L315 761L272 736V686L315 661Z" fill="#202020"/>
<path d="M360 582L403 607V657L360 682L317 657V607L360 582Z" fill="#202020"/>
<path d="M360 582L403 607V657L360 682L317 657V607L360 582Z" fill="#202020"/>
<path d="M405 661L448 686V736L405 761L362 736V686L405 661Z" fill="#202020"/>
<path d="M405 661L448 686V736L405 761L362 736V686L405 661Z" fill="#202020"/>
<path d="M450 582L493 607V657L450 682L407 657V607L450 582Z" fill="#202020"/>
<path d="M450 582L493 607V657L450 682L407 657V607L450 582Z" fill="#202020"/>
<path d="M495 661L538 686V736L495 761L452 736V686L495 661Z" fill="#202020"/>
<path d="M495 661L538 686V736L495 761L452 736V686L495 661Z" fill="#202020"/>
<path d="M540 582L583 607V657L540 682L497 657V607L540 582Z" fill="#202020"/>
<path d="M540 582L583 607V657L540 682L497 657V607L540 582Z" fill="#202020"/>
<path d="M585 661L628 686V736L585 761L542 736V686L585 661Z" fill="#202020"/>
<path d="M585 661L628 686V736L585 761L542 736V686L585 661Z" fill="#202020"/>
<path d="M630 582L673 607V657L630 682L587 657V607L630 582Z" fill="#202020"/>
<path d="M630 582L673 607V657L630 682L587 657V607L630 582Z" fill="#202020"/>
<path d="M675 661L718 686V736L675 761L632 736V686L675 661Z" fill="#202020"/>
<path d="M675 661L718 686V736L675 761L632 736V686L675 661Z" fill="#202020"/>
<path d="M720 582L763 607V657L720 682L677 657V607L720 582Z" fill="#202020"/>
<path d="M720 582L763 607V657L720 682L677 657V607L720 582Z" fill="#202020"/>
<path d="M765 661L808 686V736L765 761L722 736V686L765 661Z" fill="#202020"/>
<path d="M765 661L808 686V736L765 761L722 736V686L765 661Z" fill="#202020"/>
<path d="M810 582L853 607V657L810 682L767 657V607L810 582Z" fill="#202020"/>
<path d="M810 582L853 607V657L810 682L767 657V607L810 582Z" fill="#202020"/>
<path d="M855 661L898 686V736L855 761L812 736V686L855 661Z" fill="#202020"/>
<path d="M855 661L898 686V736L855 761L812 736V686L855 661Z" fill="#202020"/>
<path d="M900 582L943 607V657L900 682L857 657V607L900 582Z" fill="#202020"/>
<path d="M900 582L943 607V657L900 682L857 657V607L900 582Z" fill="#202020"/>
<path d="M945 661L988 686V736L945 761L902 736V686L945 661Z" fill="#202020"/>
<path d="M945 661L988 686V736L945 761L902 736V686L945 661Z" fill="#202020"/>
<path d="M1035 661L1078 686V736L1035 761L992 736V686L1035 661Z" fill="#202020"/>
<path d="M1035 661L1078 686V736L1035 761L992 736V686L1035 661Z" fill="#202020"/>
<path d="M1080 582L1123 607V657L1080 682L1037 657V607L1080 582Z" fill="#202020"/>
<path d="M1080 582L1123 607V657L1080 682L1037 657V607L1080 582Z" fill="#202020"/>
<path d="M1125 661L1168 686V736L1125 761L1082 736V686L1125 661Z" fill="#202020"/>
<path d="M1125 661L1168 686V736L1125 761L1082 736V686L1125 661Z" fill="#202020"/>
<path d="M1170 582L1213 607V657L1170 682L1127 657V607L1170 582Z" fill="#202020"/>
<path d="M1170 582L1213 607V657L1170 682L1127 657V607L1170 582Z" fill="#202020"/>
<path d="M1215 661L1258 686V736L1215 761L1172 736V686L1215 661Z" fill="#202020"/>
<path d="M1215 661L1258 686V736L1215 761L1172 736V686L1215 661Z" fill="#202020"/>
<path d="M1260 582L1303 607V657L1260 682L1217 657V607L1260 582Z" fill="#202020"/>
<path d="M1260 582L1303 607V657L1260 682L1217 657V607L1260 582Z" fill="#202020"/>
<path d="M90 582L133 607V657L90 682L47 657V607L90 582Z" fill="#202020"/>
<path d="M90 582L133 607V657L90 682L47 657V607L90 582Z" fill="#202020"/>
<path d="M2.72646e-06 740L43 765V815L2.72646e-06 840L-43 815V765L2.72646e-06 740Z" fill="#202020"/>
<path d="M2.72646e-06 740L43 765V815L2.72646e-06 840L-43 815V765L2.72646e-06 740Z" fill="#202020"/>
<path d="M45 819L88 844V894L45 919L2 894V844L45 819Z" fill="#202020"/>
<path d="M45 819L88 844V894L45 919L2 894V844L45 819Z" fill="#202020"/>
<path d="M135 819L178 844V894L135 919L92 894V844L135 819Z" fill="#202020"/>
<path d="M135 819L178 844V894L135 919L92 894V844L135 819Z" fill="#202020"/>
<path d="M180 740L223 765V815L180 840L137 815V765L180 740Z" fill="#202020"/>
<path d="M180 740L223 765V815L180 840L137 815V765L180 740Z" fill="#202020"/>
<path d="M225 819L268 844V894L225 919L182 894V844L225 819Z" fill="#202020"/>
<path d="M225 819L268 844V894L225 919L182 894V844L225 819Z" fill="#202020"/>
<path d="M990 740L1033 765V815L990 840L947 815V765L990 740Z" fill="#202020"/>
<path d="M990 740L1033 765V815L990 840L947 815V765L990 740Z" fill="#202020"/>
<path d="M270 740L313 765V815L270 840L227 815V765L270 740Z" fill="#202020"/>
<path d="M270 740L313 765V815L270 840L227 815V765L270 740Z" fill="#202020"/>
<path d="M315 819L358 844V894L315 919L272 894V844L315 819Z" fill="#202020"/>
<path d="M315 819L358 844V894L315 919L272 894V844L315 819Z" fill="#202020"/>
<path d="M360 740L403 765V815L360 840L317 815V765L360 740Z" fill="#202020"/>
<path d="M360 740L403 765V815L360 840L317 815V765L360 740Z" fill="#202020"/>
<path d="M405 819L448 844V894L405 919L362 894V844L405 819Z" fill="#202020"/>
<path d="M405 819L448 844V894L405 919L362 894V844L405 819Z" fill="#202020"/>
<path d="M450 740L493 765V815L450 840L407 815V765L450 740Z" fill="#202020"/>
<path d="M450 740L493 765V815L450 840L407 815V765L450 740Z" fill="#202020"/>
<path d="M495 819L538 844V894L495 919L452 894V844L495 819Z" fill="#202020"/>
<path d="M495 819L538 844V894L495 919L452 894V844L495 819Z" fill="#202020"/>
<path d="M540 740L583 765V815L540 840L497 815V765L540 740Z" fill="#202020"/>
<path d="M540 740L583 765V815L540 840L497 815V765L540 740Z" fill="#202020"/>
<path d="M585 819L628 844V894L585 919L542 894V844L585 819Z" fill="#202020"/>
<path d="M585 819L628 844V894L585 919L542 894V844L585 819Z" fill="#202020"/>
<path d="M630 740L673 765V815L630 840L587 815V765L630 740Z" fill="#202020"/>
<path d="M630 740L673 765V815L630 840L587 815V765L630 740Z" fill="#202020"/>
<path d="M675 819L718 844V894L675 919L632 894V844L675 819Z" fill="#202020"/>
<path d="M675 819L718 844V894L675 919L632 894V844L675 819Z" fill="#202020"/>
<path d="M720 740L763 765V815L720 840L677 815V765L720 740Z" fill="#202020"/>
<path d="M720 740L763 765V815L720 840L677 815V765L720 740Z" fill="#202020"/>
<path d="M765 819L808 844V894L765 919L722 894V844L765 819Z" fill="#202020"/>
<path d="M765 819L808 844V894L765 919L722 894V844L765 819Z" fill="#202020"/>
<path d="M810 740L853 765V815L810 840L767 815V765L810 740Z" fill="#202020"/>
<path d="M810 740L853 765V815L810 840L767 815V765L810 740Z" fill="#202020"/>
<path d="M855 819L898 844V894L855 919L812 894V844L855 819Z" fill="#202020"/>
<path d="M855 819L898 844V894L855 919L812 894V844L855 819Z" fill="#202020"/>
<path d="M900 740L943 765V815L900 840L857 815V765L900 740Z" fill="#202020"/>
<path d="M900 740L943 765V815L900 840L857 815V765L900 740Z" fill="#202020"/>
<path d="M945 819L988 844V894L945 919L902 894V844L945 819Z" fill="#202020"/>
<path d="M945 819L988 844V894L945 919L902 894V844L945 819Z" fill="#202020"/>
<path d="M1035 819L1078 844V894L1035 919L992 894V844L1035 819Z" fill="#202020"/>
<path d="M1035 819L1078 844V894L1035 919L992 894V844L1035 819Z" fill="#202020"/>
<path d="M1080 740L1123 765V815L1080 840L1037 815V765L1080 740Z" fill="#202020"/>
<path d="M1080 740L1123 765V815L1080 840L1037 815V765L1080 740Z" fill="#202020"/>
<path d="M1125 819L1168 844V894L1125 919L1082 894V844L1125 819Z" fill="#202020"/>
<path d="M1125 819L1168 844V894L1125 919L1082 894V844L1125 819Z" fill="#202020"/>
<path d="M1170 740L1213 765V815L1170 840L1127 815V765L1170 740Z" fill="#202020"/>
<path d="M1170 740L1213 765V815L1170 840L1127 815V765L1170 740Z" fill="#202020"/>
<path d="M1215 819L1258 844V894L1215 919L1172 894V844L1215 819Z" fill="#202020"/>
<path d="M1215 819L1258 844V894L1215 919L1172 894V844L1215 819Z" fill="#202020"/>
<path d="M1260 740L1303 765V815L1260 840L1217 815V765L1260 740Z" fill="#202020"/>
<path d="M1260 740L1303 765V815L1260 840L1217 815V765L1260 740Z" fill="#202020"/>
<path d="M90 740L133 765V815L90 840L47 815V765L90 740Z" fill="#202020"/>
<path d="M90 740L133 765V815L90 840L47 815V765L90 740Z" fill="#202020"/>
<path d="M2.72646e-06 898L43 923V973L2.72646e-06 998L-43 973V923L2.72646e-06 898Z" fill="#202020"/>
<path d="M2.72646e-06 898L43 923V973L2.72646e-06 998L-43 973V923L2.72646e-06 898Z" fill="#202020"/>
<path d="M45 977L88 1002V1052L45 1077L2 1052V1002L45 977Z" fill="#202020"/>
<path d="M45 977L88 1002V1052L45 1077L2 1052V1002L45 977Z" fill="#202020"/>
<path d="M135 977L178 1002V1052L135 1077L92 1052V1002L135 977Z" fill="#202020"/>
<path d="M135 977L178 1002V1052L135 1077L92 1052V1002L135 977Z" fill="#202020"/>
<path d="M180 898L223 923V973L180 998L137 973V923L180 898Z" fill="#202020"/>
<path d="M180 898L223 923V973L180 998L137 973V923L180 898Z" fill="#202020"/>
<path d="M225 977L268 1002V1052L225 1077L182 1052V1002L225 977Z" fill="#202020"/>
<path d="M225 977L268 1002V1052L225 1077L182 1052V1002L225 977Z" fill="#202020"/>
<path d="M990 898L1033 923V973L990 998L947 973V923L990 898Z" fill="#202020"/>
<path d="M990 898L1033 923V973L990 998L947 973V923L990 898Z" fill="#202020"/>
<path d="M270 898L313 923V973L270 998L227 973V923L270 898Z" fill="#202020"/>
<path d="M270 898L313 923V973L270 998L227 973V923L270 898Z" fill="#202020"/>
<path d="M315 977L358 1002V1052L315 1077L272 1052V1002L315 977Z" fill="#202020"/>
<path d="M315 977L358 1002V1052L315 1077L272 1052V1002L315 977Z" fill="#202020"/>
<path d="M360 898L403 923V973L360 998L317 973V923L360 898Z" fill="#202020"/>
<path d="M360 898L403 923V973L360 998L317 973V923L360 898Z" fill="#202020"/>
<path d="M405 977L448 1002V1052L405 1077L362 1052V1002L405 977Z" fill="#202020"/>
<path d="M405 977L448 1002V1052L405 1077L362 1052V1002L405 977Z" fill="#202020"/>
<path d="M450 898L493 923V973L450 998L407 973V923L450 898Z" fill="#202020"/>
<path d="M450 898L493 923V973L450 998L407 973V923L450 898Z" fill="#202020"/>
<path d="M495 977L538 1002V1052L495 1077L452 1052V1002L495 977Z" fill="#202020"/>
<path d="M495 977L538 1002V1052L495 1077L452 1052V1002L495 977Z" fill="#202020"/>
<path d="M540 898L583 923V973L540 998L497 973V923L540 898Z" fill="#202020"/>
<path d="M540 898L583 923V973L540 998L497 973V923L540 898Z" fill="#202020"/>
<path d="M585 977L628 1002V1052L585 1077L542 1052V1002L585 977Z" fill="#202020"/>
<path d="M585 977L628 1002V1052L585 1077L542 1052V1002L585 977Z" fill="#202020"/>
<path d="M630 898L673 923V973L630 998L587 973V923L630 898Z" fill="#202020"/>
<path d="M630 898L673 923V973L630 998L587 973V923L630 898Z" fill="#202020"/>
<path d="M675 977L718 1002V1052L675 1077L632 1052V1002L675 977Z" fill="#202020"/>
<path d="M675 977L718 1002V1052L675 1077L632 1052V1002L675 977Z" fill="#202020"/>
<path d="M720 898L763 923V973L720 998L677 973V923L720 898Z" fill="#202020"/>
<path d="M720 898L763 923V973L720 998L677 973V923L720 898Z" fill="#202020"/>
<path d="M765 977L808 1002V1052L765 1077L722 1052V1002L765 977Z" fill="#202020"/>
<path d="M765 977L808 1002V1052L765 1077L722 1052V1002L765 977Z" fill="#202020"/>
<path d="M810 898L853 923V973L810 998L767 973V923L810 898Z" fill="#202020"/>
<path d="M810 898L853 923V973L810 998L767 973V923L810 898Z" fill="#202020"/>
<path d="M855 977L898 1002V1052L855 1077L812 1052V1002L855 977Z" fill="#202020"/>
<path d="M855 977L898 1002V1052L855 1077L812 1052V1002L855 977Z" fill="#202020"/>
<path d="M900 898L943 923V973L900 998L857 973V923L900 898Z" fill="#202020"/>
<path d="M900 898L943 923V973L900 998L857 973V923L900 898Z" fill="#202020"/>
<path d="M945 977L988 1002V1052L945 1077L902 1052V1002L945 977Z" fill="#202020"/>
<path d="M945 977L988 1002V1052L945 1077L902 1052V1002L945 977Z" fill="#202020"/>
<path d="M1035 977L1078 1002V1052L1035 1077L992 1052V1002L1035 977Z" fill="#202020"/>
<path d="M1035 977L1078 1002V1052L1035 1077L992 1052V1002L1035 977Z" fill="#202020"/>
<path d="M1080 898L1123 923V973L1080 998L1037 973V923L1080 898Z" fill="#202020"/>
<path d="M1080 898L1123 923V973L1080 998L1037 973V923L1080 898Z" fill="#202020"/>
<path d="M1125 977L1168 1002V1052L1125 1077L1082 1052V1002L1125 977Z" fill="#202020"/>
<path d="M1125 977L1168 1002V1052L1125 1077L1082 1052V1002L1125 977Z" fill="#202020"/>
<path d="M1170 898L1213 923V973L1170 998L1127 973V923L1170 898Z" fill="#202020"/>
<path d="M1170 898L1213 923V973L1170 998L1127 973V923L1170 898Z" fill="#202020"/>
<path d="M1215 977L1258 1002V1052L1215 1077L1172 1052V1002L1215 977Z" fill="#202020"/>
<path d="M1215 977L1258 1002V1052L1215 1077L1172 1052V1002L1215 977Z" fill="#202020"/>
<path d="M1260 898L1303 923V973L1260 998L1217 973V923L1260 898Z" fill="#202020"/>
<path d="M1260 898L1303 923V973L1260 998L1217 973V923L1260 898Z" fill="#202020"/>
<path d="M90 898L133 923V973L90 998L47 973V923L90 898Z" fill="#202020"/>
<path d="M90 898L133 923V973L90 998L47 973V923L90 898Z" fill="#202020"/>
<path d="M2.72646e-06 1056L43 1081V1131L2.72646e-06 1156L-43 1131V1081L2.72646e-06 1056Z" fill="#202020"/>
<path d="M2.72646e-06 1056L43 1081V1131L2.72646e-06 1156L-43 1131V1081L2.72646e-06 1056Z" fill="#202020"/>
<path d="M45 1135L88 1160V1210L45 1235L2 1210V1160L45 1135Z" fill="#202020"/>
<path d="M45 1135L88 1160V1210L45 1235L2 1210V1160L45 1135Z" fill="#202020"/>
<path d="M135 1135L178 1160V1210L135 1235L92 1210V1160L135 1135Z" fill="#202020"/>
<path d="M135 1135L178 1160V1210L135 1235L92 1210V1160L135 1135Z" fill="#202020"/>
<path d="M180 1056L223 1081V1131L180 1156L137 1131V1081L180 1056Z" fill="#202020"/>
<path d="M180 1056L223 1081V1131L180 1156L137 1131V1081L180 1056Z" fill="#202020"/>
<path d="M225 1135L268 1160V1210L225 1235L182 1210V1160L225 1135Z" fill="#202020"/>
<path d="M225 1135L268 1160V1210L225 1235L182 1210V1160L225 1135Z" fill="#202020"/>
<path d="M990 1056L1033 1081V1131L990 1156L947 1131V1081L990 1056Z" fill="#202020"/>
<path d="M990 1056L1033 1081V1131L990 1156L947 1131V1081L990 1056Z" fill="#202020"/>
<path d="M270 1056L313 1081V1131L270 1156L227 1131V1081L270 1056Z" fill="#202020"/>
<path d="M270 1056L313 1081V1131L270 1156L227 1131V1081L270 1056Z" fill="#202020"/>
<path d="M315 1135L358 1160V1210L315 1235L272 1210V1160L315 1135Z" fill="#202020"/>
<path d="M315 1135L358 1160V1210L315 1235L272 1210V1160L315 1135Z" fill="#202020"/>
<path d="M360 1056L403 1081V1131L360 1156L317 1131V1081L360 1056Z" fill="#202020"/>
<path d="M360 1056L403 1081V1131L360 1156L317 1131V1081L360 1056Z" fill="#202020"/>
<path d="M405 1135L448 1160V1210L405 1235L362 1210V1160L405 1135Z" fill="#202020"/>
<path d="M405 1135L448 1160V1210L405 1235L362 1210V1160L405 1135Z" fill="#202020"/>
<path d="M450 1056L493 1081V1131L450 1156L407 1131V1081L450 1056Z" fill="#202020"/>
<path d="M450 1056L493 1081V1131L450 1156L407 1131V1081L450 1056Z" fill="#202020"/>
<path d="M495 1135L538 1160V1210L495 1235L452 1210V1160L495 1135Z" fill="#202020"/>
<path d="M495 1135L538 1160V1210L495 1235L452 1210V1160L495 1135Z" fill="#202020"/>
<path d="M540 1056L583 1081V1131L540 1156L497 1131V1081L540 1056Z" fill="#202020"/>
<path d="M540 1056L583 1081V1131L540 1156L497 1131V1081L540 1056Z" fill="#202020"/>
<path d="M585 1135L628 1160V1210L585 1235L542 1210V1160L585 1135Z" fill="#202020"/>
<path d="M585 1135L628 1160V1210L585 1235L542 1210V1160L585 1135Z" fill="#202020"/>
<path d="M630 1056L673 1081V1131L630 1156L587 1131V1081L630 1056Z" fill="#202020"/>
<path d="M630 1056L673 1081V1131L630 1156L587 1131V1081L630 1056Z" fill="#202020"/>
<path d="M675 1135L718 1160V1210L675 1235L632 1210V1160L675 1135Z" fill="#202020"/>
<path d="M675 1135L718 1160V1210L675 1235L632 1210V1160L675 1135Z" fill="#202020"/>
<path d="M720 1056L763 1081V1131L720 1156L677 1131V1081L720 1056Z" fill="#202020"/>
<path d="M720 1056L763 1081V1131L720 1156L677 1131V1081L720 1056Z" fill="#202020"/>
<path d="M765 1135L808 1160V1210L765 1235L722 1210V1160L765 1135Z" fill="#202020"/>
<path d="M765 1135L808 1160V1210L765 1235L722 1210V1160L765 1135Z" fill="#202020"/>
<path d="M810 1056L853 1081V1131L810 1156L767 1131V1081L810 1056Z" fill="#202020"/>
<path d="M810 1056L853 1081V1131L810 1156L767 1131V1081L810 1056Z" fill="#202020"/>
<path d="M855 1135L898 1160V1210L855 1235L812 1210V1160L855 1135Z" fill="#202020"/>
<path d="M855 1135L898 1160V1210L855 1235L812 1210V1160L855 1135Z" fill="#202020"/>
<path d="M900 1056L943 1081V1131L900 1156L857 1131V1081L900 1056Z" fill="#202020"/>
<path d="M900 1056L943 1081V1131L900 1156L857 1131V1081L900 1056Z" fill="#202020"/>
<path d="M945 1135L988 1160V1210L945 1235L902 1210V1160L945 1135Z" fill="#202020"/>
<path d="M945 1135L988 1160V1210L945 1235L902 1210V1160L945 1135Z" fill="#202020"/>
<path d="M1035 1135L1078 1160V1210L1035 1235L992 1210V1160L1035 1135Z" fill="#202020"/>
<path d="M1035 1135L1078 1160V1210L1035 1235L992 1210V1160L1035 1135Z" fill="#202020"/>
<path d="M1080 1056L1123 1081V1131L1080 1156L1037 1131V1081L1080 1056Z" fill="#202020"/>
<path d="M1080 1056L1123 1081V1131L1080 1156L1037 1131V1081L1080 1056Z" fill="#202020"/>
<path d="M1125 1135L1168 1160V1210L1125 1235L1082 1210V1160L1125 1135Z" fill="#202020"/>
<path d="M1125 1135L1168 1160V1210L1125 1235L1082 1210V1160L1125 1135Z" fill="#202020"/>
<path d="M1170 1056L1213 1081V1131L1170 1156L1127 1131V1081L1170 1056Z" fill="#202020"/>
<path d="M1170 1056L1213 1081V1131L1170 1156L1127 1131V1081L1170 1056Z" fill="#202020"/>
<path d="M1215 1135L1258 1160V1210L1215 1235L1172 1210V1160L1215 1135Z" fill="#202020"/>
<path d="M1215 1135L1258 1160V1210L1215 1235L1172 1210V1160L1215 1135Z" fill="#202020"/>
<path d="M1260 1056L1303 1081V1131L1260 1156L1217 1131V1081L1260 1056Z" fill="#202020"/>
<path d="M1260 1056L1303 1081V1131L1260 1156L1217 1131V1081L1260 1056Z" fill="#202020"/>
<path d="M90 1056L133 1081V1131L90 1156L47 1131V1081L90 1056Z" fill="#202020"/>
<path d="M90 1056L133 1081V1131L90 1156L47 1131V1081L90 1056Z" fill="#202020"/>
<path d="M2.72646e-06 1214L43 1239V1289L2.72646e-06 1314L-43 1289V1239L2.72646e-06 1214Z" fill="#202020"/>
<path d="M2.72646e-06 1214L43 1239V1289L2.72646e-06 1314L-43 1289V1239L2.72646e-06 1214Z" fill="#202020"/>
<path d="M180 1214L223 1239V1289L180 1314L137 1289V1239L180 1214Z" fill="#202020"/>
<path d="M180 1214L223 1239V1289L180 1314L137 1289V1239L180 1214Z" fill="#202020"/>
<path d="M990 1214L1033 1239V1289L990 1314L947 1289V1239L990 1214Z" fill="#202020"/>
<path d="M990 1214L1033 1239V1289L990 1314L947 1289V1239L990 1214Z" fill="#202020"/>
<path d="M270 1214L313 1239V1289L270 1314L227 1289V1239L270 1214Z" fill="#202020"/>
<path d="M270 1214L313 1239V1289L270 1314L227 1289V1239L270 1214Z" fill="#202020"/>
<path d="M360 1214L403 1239V1289L360 1314L317 1289V1239L360 1214Z" fill="#202020"/>
<path d="M360 1214L403 1239V1289L360 1314L317 1289V1239L360 1214Z" fill="#202020"/>
<path d="M450 1214L493 1239V1289L450 1314L407 1289V1239L450 1214Z" fill="#202020"/>
<path d="M450 1214L493 1239V1289L450 1314L407 1289V1239L450 1214Z" fill="#202020"/>
<path d="M540 1214L583 1239V1289L540 1314L497 1289V1239L540 1214Z" fill="#202020"/>
<path d="M540 1214L583 1239V1289L540 1314L497 1289V1239L540 1214Z" fill="#202020"/>
<path d="M630 1214L673 1239V1289L630 1314L587 1289V1239L630 1214Z" fill="#202020"/>
<path d="M630 1214L673 1239V1289L630 1314L587 1289V1239L630 1214Z" fill="#202020"/>
<path d="M720 1214L763 1239V1289L720 1314L677 1289V1239L720 1214Z" fill="#202020"/>
<path d="M720 1214L763 1239V1289L720 1314L677 1289V1239L720 1214Z" fill="#202020"/>
<path d="M810 1214L853 1239V1289L810 1314L767 1289V1239L810 1214Z" fill="#202020"/>
<path d="M810 1214L853 1239V1289L810 1314L767 1289V1239L810 1214Z" fill="#202020"/>
<path d="M900 1214L943 1239V1289L900 1314L857 1289V1239L900 1214Z" fill="#202020"/>
<path d="M900 1214L943 1239V1289L900 1314L857 1289V1239L900 1214Z" fill="#202020"/>
<path d="M1080 1214L1123 1239V1289L1080 1314L1037 1289V1239L1080 1214Z" fill="#202020"/>
<path d="M1080 1214L1123 1239V1289L1080 1314L1037 1289V1239L1080 1214Z" fill="#202020"/>
<path d="M1170 1214L1213 1239V1289L1170 1314L1127 1289V1239L1170 1214Z" fill="#202020"/>
<path d="M1170 1214L1213 1239V1289L1170 1314L1127 1289V1239L1170 1214Z" fill="#202020"/>
<path d="M1260 1214L1303 1239V1289L1260 1314L1217 1289V1239L1260 1214Z" fill="#202020"/>
<path d="M1260 1214L1303 1239V1289L1260 1314L1217 1289V1239L1260 1214Z" fill="#202020"/>
<path d="M90 1214L133 1239V1289L90 1314L47 1289V1239L90 1214Z" fill="#202020"/>
<path d="M90 1214L133 1239V1289L90 1314L47 1289V1239L90 1214Z" fill="#202020"/>
</svg>
