<svg width="95" height="160" viewBox="0 0 95 160" fill="none" xmlns="http://www.w3.org/2000/svg">
<path d="M21.28 21H34.32C38.8533 21 42.16 22.0667 44.24 24.2C46.32 26.28 47.36 29.5067 47.36 33.88V37.32C47.36 43.1333 45.44 46.8133 41.6 48.36V48.52C43.7333 49.16 45.2267 50.4667 46.08 52.44C46.9867 54.4133 47.44 57.0533 47.44 60.36V70.2C47.44 71.8 47.4933 73.1067 47.6 74.12C47.7067 75.08 47.9733 76.04 48.4 77H39.44C39.12 76.0933 38.9067 75.24 38.8 74.44C38.6933 73.64 38.64 72.2 38.64 70.12V59.88C38.64 57.32 38.2133 55.5333 37.36 54.52C36.56 53.5067 35.1467 53 33.12 53H30.08V77H21.28V21ZM33.28 45C35.04 45 36.3467 44.5467 37.2 43.64C38.1067 42.7333 38.56 41.2133 38.56 39.08V34.76C38.56 32.7333 38.1867 31.2667 37.44 30.36C36.7467 29.4533 35.6267 29 34.08 29H30.08V45H33.28Z" fill="white"/>
<path d="M47.28 67H60.72C65.0933 67 68.3733 68.1733 70.56 70.52C72.7467 72.8667 73.84 76.3067 73.84 80.84V109.16C73.84 113.693 72.7467 117.133 70.56 119.48C68.3733 121.827 65.0933 123 60.72 123H47.28V67ZM60.56 115C62 115 63.0933 114.573 63.84 113.72C64.64 112.867 65.04 111.48 65.04 109.56V80.44C65.04 78.52 64.64 77.1333 63.84 76.28C63.0933 75.4267 62 75 60.56 75H56.08V115H60.56Z" fill="white"/>
<g filter="url(#filter0_d_107_55)">
<rect x="6.5" y="2.5" width="82" height="147" stroke="white" stroke-width="5" shape-rendering="crispEdges"/>
</g>
<defs>
<filter id="filter0_d_107_55" x="0" y="0" width="95" height="160" filterUnits="userSpaceOnUse" color-interpolation-filters="sRGB">
<feFlood flood-opacity="0" result="BackgroundImageFix"/>
<feColorMatrix in="SourceAlpha" type="matrix" values="0 0 0 0 0 0 0 0 0 0 0 0 0 0 0 0 0 0 127 0" result="hardAlpha"/>
<feOffset dy="4"/>
<feGaussianBlur stdDeviation="2"/>
<feComposite in2="hardAlpha" operator="out"/>
<feColorMatrix type="matrix" values="0 0 0 0 0 0 0 0 0 0 0 0 0 0 0 0 0 0 0.25 0"/>
<feBlend mode="normal" in2="BackgroundImageFix" result="effect1_dropShadow_107_55"/>
<feBlend mode="normal" in="SourceGraphic" in2="effect1_dropShadow_107_55" result="shape"/>
</filter>
</defs>
</svg>
